<?xml version="1.0" encoding="UTF-8" standalone="no"?>
<!-- Generator: $$$/GeneralStr/196=Adobe Illustrator 27.6.0, SVG Export Plug-In . SVG Version: 6.00 Build 0)  -->

<svg
   version="1.1"
   id="Calque_1"
   x="0px"
   y="0px"
   viewBox="0 0 120 120"
   xml:space="preserve"
   sodipodi:docname="logo_forge.svg"
   width="120"
   height="120"
   inkscape:version="1.2.2 (732a01da63, 2022-12-09)"
   xmlns:inkscape="http://www.inkscape.org/namespaces/inkscape"
   xmlns:sodipodi="http://sodipodi.sourceforge.net/DTD/sodipodi-0.dtd"
   xmlns="http://www.w3.org/2000/svg"
   xmlns:svg="http://www.w3.org/2000/svg"><defs
   id="defs21" /><sodipodi:namedview
   id="namedview19"
   pagecolor="#ffffff"
   bordercolor="#000000"
   borderopacity="0.25"
   inkscape:showpageshadow="2"
   inkscape:pageopacity="0.0"
   inkscape:pagecheckerboard="0"
   inkscape:deskcolor="#d1d1d1"
   showgrid="false"
   inkscape:zoom="4.8594378"
   inkscape:cx="43.523553"
   inkscape:cy="55.767768"
   inkscape:window-width="1920"
   inkscape:window-height="1017"
   inkscape:window-x="3832"
   inkscape:window-y="-8"
   inkscape:window-maximized="1"
   inkscape:current-layer="Calque_1" />
<style
   type="text/css"
   id="style2">
	.st0{fill-rule:evenodd;clip-rule:evenodd;fill:#F17361;}
</style>




<g
   id="g3864"><path
     id="path3319"
     style="fill:#f17361;fill-opacity:1;stroke-width:1.31385;stop-color:#000000"
     d="m 40.698014,34.844955 a 12.5,12.5 0 0 0 -12.5,12.5 12.5,12.5 0 0 0 12.5,12.5 12.5,12.5 0 0 0 12.5,-12.5 12.5,12.5 0 0 0 -12.5,-12.5 z m 0,6 a 6.5,6.5 0 0 1 6.5,6.5 6.5,6.5 0 0 1 -6.5,6.5 6.5,6.5 0 0 1 -6.5,-6.5 6.5,6.5 0 0 1 6.5,-6.5 z" /><path
     id="path3319-6"
     style="fill:#f17361;fill-opacity:1;stroke-width:1.31385;stop-color:#000000"
     d="m 68.587639,19.668141 a 12.5,12.5 0 0 0 -12.5,12.5 12.5,12.5 0 0 0 12.5,12.5 12.5,12.5 0 0 0 12.5,-12.5 12.5,12.5 0 0 0 -12.5,-12.5 z m 0,6 a 6.5,6.5 0 0 1 6.5,6.5 6.5,6.5 0 0 1 -6.5,6.5 6.5,6.5 0 0 1 -6.5,-6.5 6.5,6.5 0 0 1 6.5,-6.5 z" /><path
     id="path3319-6-9"
     style="fill:#f17361;fill-opacity:1;stroke-width:1.31385;stop-color:#000000"
     d="m 68.587639,76.059419 a 12.5,12.5 0 0 0 -12.5,12.5 12.5,12.5 0 0 0 12.5,12.500041 12.5,12.5 0 0 0 12.5,-12.500041 12.5,12.5 0 0 0 -12.5,-12.5 z m 0,6 a 6.5,6.5 0 0 1 6.5,6.5 6.5,6.5 0 0 1 -6.5,6.5 6.5,6.5 0 0 1 -6.5,-6.5 6.5,6.5 0 0 1 6.5,-6.5 z" /><path
     class="st0"
     d="M 73.100914,79.247787 V 40.752212 h -8.230089 v 38.495575 z"
     id="path10"
     style="stroke-width:0.884956" /><path
     class="st0"
     d="m 36.198259,60.221239 c 0.0885,3.539823 0.707964,8.318584 3.539823,12.566371 1.681416,2.566372 4.336283,4.247788 6.814159,5.486726 2.566372,1.238938 5.39823,2.035398 8.053097,2.654867 2.654868,0.619469 5.132744,1.061947 7.079646,1.327434 0.619469,0.0885 1.238938,0.176991 1.769912,0.265487 0.265487,0 0.442478,0.08849 0.619469,0.08849 0.530973,0.0885 0.79646,0.0885 0.884956,0.0885 0.08849,0 0.08849,0 0.08849,0 l 2.035398,-7.876107 c -0.530973,-0.176991 -1.238938,-0.265486 -1.858407,-0.353982 v 0 c -0.265486,0 -0.442477,-0.08849 -0.707964,-0.08849 -0.530974,-0.0885 -1.061947,-0.176992 -1.681416,-0.265487 -1.858407,-0.265487 -4.070797,-0.619469 -6.460177,-1.150443 -2.300885,-0.530973 -4.60177,-1.238938 -6.371682,-2.123893 -1.858407,-0.884956 -3.008849,-1.858407 -3.451327,-2.566372 -1.59292,-2.389381 -2.123894,-5.486726 -2.212389,-8.230089 0,-1.327433 0.0885,-2.477876 0.176991,-3.362831 0.0885,-0.442478 0.0885,-0.707965 0.0885,-0.973452 0,-0.08849 0,-0.176991 0,-0.176991 0,0 0,0 0,0 v 0 c 0,0 0,0 -3.9823,-0.79646 -3.893806,-0.884956 -3.893806,-0.884956 -3.893806,-0.884956 v 0 0 0 0 c 0,0 0,0.0885 0,0.0885 0,0.0885 0,0.265486 -0.0885,0.353982 -0.0885,0.353982 -0.0885,0.79646 -0.176991,1.327434 -0.176992,1.238938 -0.265487,2.831858 -0.265487,4.60177 z"
     id="path12"
     style="stroke-width:0.884956" /></g>


</svg>
